<svg width="32" height="32" viewBox="0 0 32 32" fill="none" xmlns="http://www.w3.org/2000/svg">
<rect width="32" height="32" fill="white"/>
<path d="M7.068 23V10.174C7.068 9.36733 7.17067 8.75133 7.376 8.326C7.58133 7.886 7.91133 7.58533 8.366 7.424C8.83533 7.248 9.45133 7.16 10.214 7.16H11.402V8.854H10.566C9.95 8.854 9.53933 8.94933 9.334 9.14C9.14333 9.316 9.048 9.712 9.048 10.328V23H7.068ZM5.462 13.76V12.088H11.402V13.76H5.462ZM21.8855 27.84V21.218C21.5335 21.746 21.0348 22.2227 20.3895 22.648C19.7588 23.0587 18.9448 23.264 17.9475 23.264C16.8622 23.264 15.9162 23.0147 15.1095 22.516C14.3028 22.0173 13.6722 21.3353 13.2175 20.47C12.7628 19.6047 12.5355 18.622 12.5355 17.522C12.5355 16.422 12.7628 15.4467 13.2175 14.596C13.6722 13.7307 14.3028 13.056 15.1095 12.572C15.9308 12.0733 16.8768 11.824 17.9475 11.824C18.8422 11.824 19.6268 12.0073 20.3015 12.374C20.9908 12.726 21.5188 13.2247 21.8855 13.87V12.088H23.8655V27.84H21.8855ZM18.2115 21.548C18.9302 21.548 19.5608 21.3793 20.1035 21.042C20.6462 20.7047 21.0715 20.2353 21.3795 19.634C21.6875 19.0327 21.8415 18.336 21.8415 17.544C21.8415 16.752 21.6875 16.0553 21.3795 15.454C21.0715 14.8527 20.6462 14.3833 20.1035 14.046C19.5608 13.7087 18.9302 13.54 18.2115 13.54C17.5075 13.54 16.8768 13.7087 16.3195 14.046C15.7622 14.3833 15.3295 14.8527 15.0215 15.454C14.7135 16.0407 14.5595 16.7373 14.5595 17.544C14.5595 18.336 14.7135 19.0327 15.0215 19.634C15.3295 20.2353 15.7622 20.7047 16.3195 21.042C16.8768 21.3793 17.5075 21.548 18.2115 21.548Z" fill="black"/>
</svg>
